<?xml version="1.0" encoding="utf-8"?>
<!-- Generator: Adobe Illustrator 28.2.0, SVG Export Plug-In . SVG Version: 6.00 Build 0)  -->
<svg version="1.1" id="Layer_1" xmlns="http://www.w3.org/2000/svg" xmlns:xlink="http://www.w3.org/1999/xlink" x="0px" y="0px"
	 viewBox="0 0 1440 1265" style="enable-background:new 0 0 1440 1265;" xml:space="preserve">
<style type="text/css">
	.st0{filter:url(#b);}
	.st1{fill-rule:evenodd;clip-rule:evenodd;fill:url(#SVGID_1_);}
	.st2{filter:url(#d);}
	.st3{fill-rule:evenodd;clip-rule:evenodd;fill:url(#SVGID_00000004542850935775924350000000464954905984069525_);}
	.st4{filter:url(#e);}
	.st5{fill-rule:evenodd;clip-rule:evenodd;fill:url(#SVGID_00000149382908158288814290000008947499713413070229_);}
	.st6{filter:url(#g);}
	.st7{fill-rule:evenodd;clip-rule:evenodd;fill:url(#SVGID_00000148649577400383937410000014516660889506758571_);}
	.st8{fill-rule:evenodd;clip-rule:evenodd;fill:url(#SVGID_00000010269126931724228370000008909721331014886329_);}
</style>
<filter  filterUnits="objectBoundingBox" height="475%" id="g" width="147.2%" x="-23.6%" y="-187.5%">
	<feGaussianBlur  in="SourceGraphic" stdDeviation="50"></feGaussianBlur>
</filter>
<filter  filterUnits="objectBoundingBox" height="475%" id="e" width="147.2%" x="-23.6%" y="-187.5%">
	<feGaussianBlur  in="SourceGraphic" stdDeviation="50"></feGaussianBlur>
</filter>
<filter  filterUnits="objectBoundingBox" height="475%" id="d" width="147.2%" x="-23.6%" y="-187.5%">
	<feGaussianBlur  in="SourceGraphic" stdDeviation="50"></feGaussianBlur>
</filter>
<filter  filterUnits="objectBoundingBox" height="168.4%" id="b" width="135.1%" x="-17.6%" y="-34.2%">
	<feGaussianBlur  in="SourceGraphic" stdDeviation="50"></feGaussianBlur>
</filter>
<g class="st0">
	
		<linearGradient id="SVGID_1_" gradientUnits="userSpaceOnUse" x1="-28.7819" y1="932.2825" x2="-29.1428" y2="932.2825" gradientTransform="matrix(-3764.3252 -287.0676 33.3432 -437.2305 -139505.4688 399796.4688)">
		<stop  offset="0" style="stop-color:#6366F1"/>
		<stop  offset="1" style="stop-color:#6366F1;stop-opacity:0"/>
	</linearGradient>
	<path class="st1" d="M1419.4,661.8c0,0.5-0.1,1.2-0.2,2c-6.8,66.1-143,109.9-158.3,114.9c-105.9,34.1-252.6-6.3-549.4-136.9
		c-349.1-153.6-433.3-224-535.1-220.6c-95.9,3.2-129.8-12.5-197.4-43.8c-4.7-2.2-18.5-8.5-31.8-21.9c-19.8-20-48.1-58.2-32.2-102.3
		c5.6-15.5,15.5-28.3,26.6-38.7c7.4-6.9,40.5-33.6,120-26.2c70.2,6.5,121.3,34.7,129,39c96.5,52.9,207.2,74.4,310.5,112.3
		c182.1,66.9,347.9,85.8,508.6,104.2c40.7,4.6,287.4,31.9,355.4,102.1C1423.6,606.3,1419.4,661.8,1419.4,661.8z"/>
</g>
<g class="st2">
	
		<linearGradient id="SVGID_00000017510398979199578190000015977396306965524388_" gradientUnits="userSpaceOnUse" x1="-28.7185" y1="944.917" x2="-29.0866" y2="944.917" gradientTransform="matrix(-2600.6548 -491.8817 128.1559 -62.1123 -195045.6094 44650.2891)">
		<stop  offset="0" style="stop-color:#38BDF8"/>
		<stop  offset="1" style="stop-color:#38BDF8;stop-opacity:0"/>
	</linearGradient>
	<path style="fill-rule:evenodd;clip-rule:evenodd;fill:url(#SVGID_00000017510398979199578190000015977396306965524388_);" d="
		M1677.3,317L1677.3,317c0,28.6-28.3,48.5-55.3,38.9l-738-263c-16.5-5.9-27.5-21.5-27.5-39v0c0-28.6,28.3-48.5,55.3-38.9l738,263
		C1666.3,283.9,1677.3,299.5,1677.3,317z"/>
</g>
<g class="st4">
	
		<linearGradient id="SVGID_00000115476690944180180730000003010435492315438747_" gradientUnits="userSpaceOnUse" x1="-28.4763" y1="938.2009" x2="-28.8705" y2="938.2009" gradientTransform="matrix(-2637.8372 -217.1828 120.9567 -75.1754 -188138.0625 65311.6445)">
		<stop  offset="0" style="stop-color:#6366F1"/>
		<stop  offset="1" style="stop-color:#6366F1;stop-opacity:0"/>
	</linearGradient>
	
		<polygon style="fill-rule:evenodd;clip-rule:evenodd;fill:url(#SVGID_00000115476690944180180730000003010435492315438747_);" points="
		1443.8,1072 1452.9,1159.3 606.1,954.3 596.9,866.9 	"/>
</g>
<g class="st6">
	
		<linearGradient id="SVGID_00000049941806714656888580000014680665459638708883_" gradientUnits="userSpaceOnUse" x1="-28.72" y1="934.887" x2="-29.2213" y2="934.887" gradientTransform="matrix(-2637.8372 -217.1828 120.9567 -75.1754 -188699.4844 64273.6445)">
		<stop  offset="0" style="stop-color:#6EE7B7"/>
		<stop  offset="1" style="stop-color:#6EE7B7;stop-opacity:0"/>
	</linearGradient>
	
		<polygon style="fill-rule:evenodd;clip-rule:evenodd;fill:url(#SVGID_00000049941806714656888580000014680665459638708883_);" points="
		1327.7,380.9 1337.6,514.7 413.4,200.6 403.5,66.9 	"/>
</g>
<linearGradient id="SVGID_00000064354443408476413190000009939573093880821413_" gradientUnits="userSpaceOnUse" x1="1614.2766" y1="490.7021" x2="1614.2766" y2="490.7021">
	<stop  offset="0" style="stop-color:#6366F1"/>
	<stop  offset="1" style="stop-color:#6366F1;stop-opacity:0"/>
</linearGradient>
<path style="fill-rule:evenodd;clip-rule:evenodd;fill:url(#SVGID_00000064354443408476413190000009939573093880821413_);" d="
	M1614.3,490.7"/>
</svg>
